<?xml version="1.0" encoding="iso-8859-1"?>
<!-- Generator: Adobe Illustrator 19.0.0, SVG Export Plug-In . SVG Version: 6.00 Build 0)  -->
<svg version="1.1" id="Layer_1" xmlns="http://www.w3.org/2000/svg" xmlns:xlink="http://www.w3.org/1999/xlink" x="0px" y="0px"
	 viewBox="0 0 512.001 512.001" style="enable-background:new 0 0 512.001 512.001;" xml:space="preserve">
<g>
	<g>
		<path d="M504.747,61.526c-7.928-11.79-21.205-18.861-35.413-18.859H42.667C19.103,42.667,0,61.769,0,85.334v341.333
			c0,23.564,19.103,42.667,42.667,42.667h426.667h3.413h1.024c21.816-2.281,38.348-20.732,38.229-42.667V85.334
			C512.002,76.853,509.477,68.564,504.747,61.526z M42.667,59.734h426.667c6.061-0.004,11.928,2.143,16.555,6.059l-33.109,31.573
			L313.173,230.4l-51.712,49.323c-3.017,2.233-7.138,2.233-10.155,0l-52.48-49.323L25.6,65.878
			C30.348,61.815,36.419,59.63,42.667,59.734z M17.067,81.238l163.499,155.136L17.067,392.534v-307.2
			C16.957,83.971,16.957,82.601,17.067,81.238z M494.933,426.667c0.104,12.963-9.498,23.958-22.357,25.6H42.667
			c-14.138,0-25.6-11.461-25.6-25.6V415.83l175.872-167.68l47.019,44.715c1.149,0.929,2.377,1.757,3.669,2.475
			c3.764,2.169,8.029,3.316,12.373,3.328c6.208,0.039,12.238-2.071,17.067-5.973l46.421-44.203l175.445,167.168V426.667z
			 M494.933,85.334v306.773L331.435,236.63L494.933,81.067C495.049,82.487,495.049,83.914,494.933,85.334z"/>
	</g>
</g>
<g>
</g>
<g>
</g>
<g>
</g>
<g>
</g>
<g>
</g>
<g>
</g>
<g>
</g>
<g>
</g>
<g>
</g>
<g>
</g>
<g>
</g>
<g>
</g>
<g>
</g>
<g>
</g>
<g>
</g>
</svg>
